<?xml version="1.0" encoding="utf-8"?>
<!-- Generator: Adobe Illustrator 24.0.0, SVG Export Plug-In . SVG Version: 6.00 Build 0)  -->
<svg version="1.1" xmlns="http://www.w3.org/2000/svg" xmlns:xlink="http://www.w3.org/1999/xlink" x="0px" y="0px"
	 viewBox="0 0 500 500" style="enable-background:new 0 0 500 500;" xml:space="preserve">
<style type="text/css">
	.st0{display:none;}
	.st1{display:inline;fill:#FFFFFF;}
	.st2{fill:#E7B034;}
	.st3{fill:#2192D0;}
	.st4{fill:#CA577C;}
	.st5{fill:#C6D035;}
	.st6{fill:#323C64;}
</style>
<g id="BACKGROUND" class="st0">
	<rect x="58" y="58" class="st1" width="384" height="384"/>
</g>
<g id="OBJECTS">
	<g>
		<path class="st2" d="M222.51,199c-0.78,0-1.55,0.09-2.28,0.24c-0.04-0.12-0.07-0.24-0.11-0.36c-0.13-0.4-0.25-0.8-0.4-1.19
			c-0.16-0.41-0.35-0.9-0.7-1.19c-0.28-0.23-0.67-0.15-0.79,0.21c-0.08,0.22-0.09,0.47-0.07,0.72c-0.36-0.09-0.75-0.13-1.08-0.18
			c-0.69-0.09-1.4-0.14-2.09-0.1c-1.2,0.07-2.35,0.41-3.16,1.34c-0.2,0.23-0.38,0.47-0.55,0.71c-0.13,0.18-0.21,0.35-0.09,0.56
			c0.24,0.42,1.02,0.58,1.45,0.64c1.14,0.16,2.35-0.13,3.41-0.55c0.58-0.23,1.14-0.51,1.63-0.89c0.21-0.16,0.44-0.36,0.64-0.59
			c0.07,0.31,0.15,0.62,0.23,0.93c0.03,0.13,0.07,0.26,0.1,0.4c-4.1,1.56-7.02,5.52-7.02,10.17c0,6.01,4.87,10.89,10.89,10.89
			c6.01,0,10.89-4.87,10.89-10.89C233.4,203.88,228.53,199,222.51,199z"/>
		<path class="st3" d="M193.99,220.37c0,0,0.24-3.13,1.36-3.52c0,0,6.15,0.42,8.39,1.98s5.07,2.57,9.14,3.23s5.33,0.76,8.08,2.03
			c2.75,1.28,7.82,1.95,7.82,1.95s-0.5,3.05-1.26,4.13c0,0,0.18,20.9-8.59,35.56l-1.39,4.09c0,0-5.22-1.6-9.13-2.35
			c-3.91-0.76-7.54-0.55-10.82-2.43c-3.28-1.88-5.27-1.9-8.35-2.55c-3.08-0.65-5.15-2.3-5.15-2.3l0.98-3.2
			C185.07,257,185.78,232.29,193.99,220.37z"/>
		<polygon class="st4" points="264.41,213.45 265.38,258.94 287.54,260.3 296.87,215.2 294.54,204.51 295.51,199.84 272.57,197.51 
			271.99,202.57 		"/>
		<path class="st3" d="M235.44,194.79c-1.72,5.17,6.12,31.01,7.39,33.63c1.26,2.62,13.9,3.01,14.97,1.07
			c1.07-1.94-1.56-33.92-1.65-35.77c-0.1-1.85-5.54-2.72-6.71-3.21c-1.17-0.49-1.75-3.99-1.56-4.86c0.19-0.87,1.46-0.87,1.17-2.43
			s-2.62-1.85-5.64-1.17c-3.01,0.68-3.79,1.65-3.69,2.72c0.1,1.07,1.26,0.58,1.56,1.36s0.68,4.37,0.39,5.15
			C241.37,192.07,236.12,192.75,235.44,194.79z"/>
		<path class="st5" d="M276.03,191.99c-4.85-2.38-9.8-14.16-7.81-15.85s4.8-0.07,4.8-0.07s0.8-6.11,4.08-6.38
			c3.28-0.27,5.15,2.98,5.21,3.4c0.06,0.42,2.74-5.33,6.39-4.48c3.66,0.85,4.25,4.82,4.25,4.82s4.25-5.23,6.31-2.86
			c2.06,2.37-0.37,6.9-0.37,6.9s3.71,0.52,4.58,2.74c0.86,2.22-3.7,4.61-3.7,4.61s3.48-0.3,3.65,2.24
			C303.59,189.61,288.83,198.29,276.03,191.99z"/>
		<path class="st2" d="M268.81,200.04c-0.35-0.86-0.73-1.71-1.11-2.56c-0.03-0.06-0.05-0.11-0.08-0.17c0.08-0.24,0.13-0.49,0.1-0.78
			c-0.13-1.33-0.44-2.67-0.69-3.97c-0.27-1.35-0.56-2.7-0.88-4.04c-0.63-2.65-1.36-5.28-2.2-7.87c-0.64-1.98-1.21-4.49-2.94-5.84
			c-0.06-0.57-0.1-1.15-0.11-1.72c-0.01-0.62,0.13-1.45-0.29-1.98c-0.52-0.66-1.16-0.02-1.78,0c-0.79,0.02-1.44-0.12-2.1,0.42
			c-0.29,0.23-0.55,0.59-0.92,0.69c-0.48,0.13-0.97-0.2-1.39-0.39c-0.62-0.27-1.49-0.44-1.97,0.19c-0.49,0.64,0.16,1.3,0.59,1.75
			c0.7,0.74,1.38,1.39,1.83,2.32c0.15,0.31,0.25,0.64,0.34,0.97c-0.39,1.15-0.37,2.39-0.18,3.59c0.24,1.54,0.67,3.06,1.03,4.58
			c0.96,4.04,2.35,7.95,3.52,11.94c0.15,0.53,0.28,1.09,0.61,1.54c0.35,0.48,0.85,0.7,1.39,0.8c0.03,0.22,0.06,0.44,0.1,0.65
			c0.15,0.82,0.3,1.65,0.45,2.47c0.09,0.49,0.13,1.23,0.78,1.26c0.24,0.01,0.49-0.09,0.68-0.23c0.28-0.21,0.5-0.63,0.89-0.64
			c0.53,0,0.95,0.48,1.5,0.33c0.27-0.07,0.42-0.26,0.6-0.45c0.2-0.22,0.43-0.35,0.71-0.46c0.44-0.18,0.96-0.32,1.31-0.66
			C269.09,201.32,269.04,200.61,268.81,200.04z"/>
		<path class="st4" d="M206.23,181.67c-4.82-2.24-10.26-2.18-15.39-1.34c-2.59,0.43-5.19,1.05-7.6,2.14
			c-0.8,0.36-1.57,0.81-2.32,1.28c-0.23,0.13-0.47,0.24-0.69,0.37c-3.73,2.23-6.62,5.72-8.45,9.73c-1.87,4.09-2.72,8.73-2.37,13.24
			c0.2,2.54,0.84,4.91,2.34,6.97c1.39,1.92,3.46,3.2,5.68,3.85c2.63,0.77,5.45,0.67,8.1,0.06c2.49-0.58,4.85-1.68,6.79-3.41
			c1.96-1.75,3.47-3.99,5.04-6.09c1.71-2.28,3.37-4.61,5.14-6.85c0.77-0.98,1.6-1.96,2.6-2.7c0.97-0.72,2.08-1.16,3.16-1.67
			c2.07-0.97,3.74-2.44,4.29-4.81C213.68,187.63,210.25,183.53,206.23,181.67z"/>
		<path class="st5" d="M246.27,171.3c-0.38-3.11-2.89-5.27-5.7-6.28c-3.11-1.11-6.73-0.87-9.57,0.85c-2.75,1.66-4.41,4.39-4.91,7.53
			c-0.27,1.72-0.29,3.46-0.45,5.19c-0.14,1.46-0.24,3.1-1,4.4c-0.15,0.26-0.33,0.52-0.53,0.76c-0.02,0.02-0.03,0.04-0.05,0.06
			c-0.03,0.03-0.06,0.07-0.09,0.1c-0.53,0.56-1.11,1.08-1.75,1.5c-1.2,0.8-2.71,1.07-3.84,1.97c-1.01,0.81-1.32,2.2-0.69,3.35
			c0.62,1.13,2.06,1.54,3.23,1.06c0.65-0.27,1.11-1.15,1.82-1.19c0.7-0.04,1.36,0.48,2.05,0.59c1.55,0.24,2.25-1.29,2.49-2.55
			c0.3-1.58,0.84-2.97,2.06-4.08c1.3-1.19,3.01-1.59,4.69-1.94c3.17-0.67,6.26-1.39,8.83-3.51
			C245.1,177.26,246.63,174.27,246.27,171.3z"/>
		<path class="st5" d="M259.4,251.44c0.8-12.22-12.07-21.87-22.57-14.09c-4.91,3.64-6.97,11.32-6.24,17.15
			c0.47,3.83,2.66,8.39,6.92,9c1.11,0.16,2.25-0.06,3.03-0.9c0.78-0.84,1.08-2.06,1.34-3.14c0.53-2.18,0.71-4.49,1.67-6.54
			c0.22-0.48,0.47-0.94,0.8-1.36c0.18-0.23,0.61-0.85,0.97-0.72c0.29,0.11,0.43,0.72,0.49,0.98c0.09,0.42,0.08,0.87,0.01,1.29
			c-0.28,1.85-1.14,3.57-1.38,5.43c-0.26,2.04,0.45,4.03,2.36,5.01c2.07,1.07,4.48,0.51,6.34-0.71
			C256.91,260.37,259.11,255.85,259.4,251.44z"/>
		<path class="st3" d="M241.86,351.89c-0.75,0.68-1.47,1.61-1.99,1.95c-1.86,1.21-4.49,1.59-6.25-0.01
			c-0.81-0.74-1.57-1.98-2.71-2.21c-2.51-0.5-2.05,2.61-1.12,3.88c1.66,2.27,4.14,3.73,7,3.6c2.76-0.13,5.44-1.62,6.86-4.01
			c0.51-0.86,1.39-2.21,0.78-3.21C243.67,350.66,242.74,351.1,241.86,351.89z"/>
		<path class="st6" d="M278.07,332.58c0.75-0.68,1.47-1.61,1.99-1.95c1.86-1.21,4.49-1.59,6.25,0.01c0.81,0.74,1.57,1.98,2.71,2.21
			c2.51,0.5,2.05-2.61,1.12-3.88c-1.66-2.27-4.14-3.73-7-3.6c-2.76,0.13-5.44,1.62-6.86,4.01c-0.51,0.86-1.39,2.21-0.78,3.21
			C276.26,333.81,277.2,333.37,278.07,332.58z"/>
		<path class="st6" d="M186.58,336.26c0.61-0.55,1.19-1.3,1.61-1.57c1.5-0.97,3.62-1.29,5.04,0c0.66,0.6,1.26,1.6,2.19,1.78
			c2.03,0.4,1.65-2.1,0.9-3.13c-1.34-1.83-3.34-3.01-5.64-2.9c-2.22,0.11-4.39,1.3-5.53,3.24c-0.41,0.7-1.12,1.78-0.63,2.59
			C185.12,337.26,185.87,336.9,186.58,336.26z"/>
		<path class="st3" d="M190.69,308.78c-10.77,0-19.51,11.32-19.51,25.29c0,13.96,8.73,25.29,19.51,25.29
			c10.77,0,19.51-11.32,19.51-25.29C210.2,320.1,201.46,308.78,190.69,308.78z M190.69,349.28c-6.48,0-11.74-6.81-11.74-15.21
			c0-8.4,5.25-15.21,11.74-15.21c6.48,0,11.73,6.81,11.73,15.21C202.42,342.47,197.17,349.28,190.69,349.28z"/>
		<path class="st3" d="M282.79,300.82c-12.47,0-22.58,13.1-22.58,29.27c0,16.16,10.11,29.27,22.58,29.27
			c12.47,0,22.58-13.1,22.58-29.27C305.37,313.92,295.26,300.82,282.79,300.82z M282.79,346.07c-6.81,0-12.33-7.15-12.33-15.98
			c0-8.83,5.52-15.98,12.33-15.98c6.81,0,12.33,7.15,12.33,15.98C295.12,338.91,289.6,346.07,282.79,346.07z"/>
		<polygon class="st6" points="363.82,163.92 361.17,143.35 313.68,151.84 293.02,269.39 179.72,287.75 157.64,182.26 
			147.82,182.26 168.06,304 307.64,291.6 328.26,169.88 		"/>
	</g>
</g>
</svg>
